<svg xmlns="http://www.w3.org/2000/svg" xmlns:xlink="http://www.w3.org/1999/xlink" version="1.1" width="256" height="256" viewBox="0 0 256 256" xml:space="preserve">
<g style="stroke: none; stroke-width: 0; stroke-dasharray: none; stroke-linecap: butt; stroke-linejoin: miter; stroke-miterlimit: 10; fill: none; fill-rule: nonzero; opacity: 1;" transform="translate(1.4065934065934016 1.4065934065934016) scale(2.81 2.81)">
	<path d="M 74.434 77.62 c 0 1.888 -1.531 3.419 -3.419 3.419 H 24.448 c -4.906 0 -8.883 -3.977 -8.883 -8.883 v 0 c 0 -4.906 3.977 -8.883 8.883 -8.883 l 49.986 -9.209 V 77.62 z" style="stroke: none; stroke-width: 1; stroke-dasharray: none; stroke-linecap: butt; stroke-linejoin: miter; stroke-miterlimit: 10; fill: rgb(207,237,207); fill-rule: nonzero; opacity: 1;" transform=" matrix(1 0 0 1 0 0) " stroke-linecap="round"/>
	<path d="M 71.015 63.274 L 71.015 63.274 c 1.888 0 3.419 -1.531 3.419 -3.419 V 3.419 C 74.434 1.531 72.904 0 71.015 0 H 24.58 c -4.978 0 -9.014 4.036 -9.014 9.014 v 63.143 c 0.846 -5.593 3.7 -8.686 8.883 -8.883 L 71.015 63.274 z" style="stroke: none; stroke-width: 1; stroke-dasharray: none; stroke-linecap: butt; stroke-linejoin: miter; stroke-miterlimit: 10; fill: rgb(32,145,32); fill-rule: nonzero; opacity: 1;" transform=" matrix(1 0 0 1 0 0) " stroke-linecap="round"/>
	<path d="M 23.693 0.045 c -4.562 0.445 -8.127 4.29 -8.127 8.969 v 63.143 c 0.804 -5.314 3.425 -8.366 8.127 -8.826 V 0.045 z" style="stroke: none; stroke-width: 1; stroke-dasharray: none; stroke-linecap: butt; stroke-linejoin: miter; stroke-miterlimit: 10; fill: rgb(28,120,28); fill-rule: nonzero; opacity: 1;" transform=" matrix(1 0 0 1 0 0) " stroke-linecap="round"/>
	<path d="M 39.81 89 c -2.764 -5.106 -5.529 -5.106 -8.293 0 V 72.266 h 8.293 V 89 z" style="stroke: none; stroke-width: 1; stroke-dasharray: none; stroke-linecap: butt; stroke-linejoin: miter; stroke-miterlimit: 10; fill: rgb(167,207,167); fill-rule: nonzero; opacity: 1;" transform=" matrix(1 0 0 1 0 0) " stroke-linecap="round"/>
	<path d="M 31.518 82.039 h -6.815 c -5.389 0 -9.773 -4.384 -9.773 -9.772 s 4.384 -9.773 9.773 -9.773 h 38.017 c 0.553 0 1 0.447 1 1 s -0.447 1 -1 1 H 24.702 c -4.286 0 -7.773 3.487 -7.773 7.773 s 3.487 7.772 7.773 7.772 h 6.815 c 0.552 0 1 0.447 1 1 S 32.07 82.039 31.518 82.039 z" style="stroke: none; stroke-width: 1; stroke-dasharray: none; stroke-linecap: butt; stroke-linejoin: miter; stroke-miterlimit: 10; fill: rgb(0,0,0); fill-rule: nonzero; opacity: 1;" transform=" matrix(1 0 0 1 0 0) " stroke-linecap="round"/>
	<path d="M 70.694 82.039 H 39.811 c -0.552 0 -1 -0.447 -1 -1 s 0.448 -1 1 -1 h 30.884 c 0.553 0 1 0.447 1 1 S 71.247 82.039 70.694 82.039 z" style="stroke: none; stroke-width: 1; stroke-dasharray: none; stroke-linecap: butt; stroke-linejoin: miter; stroke-miterlimit: 10; fill: rgb(0,0,0); fill-rule: nonzero; opacity: 1;" transform=" matrix(1 0 0 1 0 0) " stroke-linecap="round"/>
	<path d="M 15.929 73.267 c -0.552 0 -1 -0.447 -1 -1 V 9.902 c 0 -5.46 4.442 -9.902 9.902 -9.902 h 45.863 c 2.413 0 4.377 1.963 4.377 4.376 v 55.741 c 0 2.413 -1.964 4.376 -4.377 4.376 h -7.976 c -0.553 0 -1 -0.447 -1 -1 s 0.447 -1 1 -1 h 7.976 c 1.311 0 2.377 -1.065 2.377 -2.376 V 4.376 C 73.071 3.066 72.005 2 70.694 2 H 24.832 c -4.357 0 -7.902 3.545 -7.902 7.902 v 62.364 C 16.929 72.819 16.481 73.267 15.929 73.267 z" style="stroke: none; stroke-width: 1; stroke-dasharray: none; stroke-linecap: butt; stroke-linejoin: miter; stroke-miterlimit: 10; fill: rgb(0,0,0); fill-rule: nonzero; opacity: 1;" transform=" matrix(1 0 0 1 0 0) " stroke-linecap="round"/>
	<path d="M 70.694 73.267 H 24.702 c -0.552 0 -1 -0.447 -1 -1 s 0.448 -1 1 -1 h 45.992 c 1.311 0 2.377 -1.066 2.377 -2.377 c 0 -0.553 0.447 -1 1 -1 s 1 0.447 1 1 C 75.071 71.303 73.107 73.267 70.694 73.267 z" style="stroke: none; stroke-width: 1; stroke-dasharray: none; stroke-linecap: butt; stroke-linejoin: miter; stroke-miterlimit: 10; fill: rgb(0,0,0); fill-rule: nonzero; opacity: 1;" transform=" matrix(1 0 0 1 0 0) " stroke-linecap="round"/>
	<path d="M 70.694 82.039 c -0.553 0 -1 -0.447 -1 -1 s 0.447 -1 1 -1 c 1.311 0 2.377 -1.065 2.377 -2.376 c 0 -0.553 0.447 -1 1 -1 s 1 0.447 1 1 C 75.071 80.076 73.107 82.039 70.694 82.039 z" style="stroke: none; stroke-width: 1; stroke-dasharray: none; stroke-linecap: butt; stroke-linejoin: miter; stroke-miterlimit: 10; fill: rgb(0,0,0); fill-rule: nonzero; opacity: 1;" transform=" matrix(1 0 0 1 0 0) " stroke-linecap="round"/>
	<path d="M 55.633 40.84 c -6.59 -1.28 -11.656 -6.883 -12.231 -13.572 c -0.32 -3.72 0.702 -7.189 2.635 -9.981 c 0.228 -0.33 -0.1 -0.758 -0.482 -0.634 c -6.596 2.14 -11.217 8.664 -10.414 16.137 c 0.748 6.965 6.351 12.614 13.31 13.412 c 5.002 0.574 9.589 -1.284 12.733 -4.544 c 0.28 -0.29 0.036 -0.771 -0.362 -0.71 C 59.167 41.201 57.426 41.189 55.633 40.84 z" style="stroke: none; stroke-width: 1; stroke-dasharray: none; stroke-linecap: butt; stroke-linejoin: miter; stroke-miterlimit: 10; fill: rgb(255,255,255); fill-rule: nonzero; opacity: 1;" transform=" matrix(1 0 0 1 0 0) " stroke-linecap="round"/>
	<path d="M 39.811 90 c -0.361 0 -0.702 -0.195 -0.879 -0.524 c -1.154 -2.132 -2.314 -3.306 -3.267 -3.306 s -2.113 1.174 -3.267 3.306 c -0.218 0.403 -0.681 0.605 -1.125 0.494 c -0.444 -0.112 -0.754 -0.512 -0.754 -0.97 V 72.267 c 0 -0.553 0.448 -1 1 -1 h 8.293 c 0.552 0 1 0.447 1 1 V 89 c 0 0.458 -0.311 0.857 -0.754 0.97 C 39.974 89.99 39.892 90 39.811 90 z M 35.664 84.17 c 1.099 0 2.14 0.533 3.146 1.617 V 73.267 h -6.293 v 12.521 C 33.524 84.703 34.565 84.17 35.664 84.17 z" style="stroke: none; stroke-width: 1; stroke-dasharray: none; stroke-linecap: butt; stroke-linejoin: miter; stroke-miterlimit: 10; fill: rgb(0,0,0); fill-rule: nonzero; opacity: 1;" transform=" matrix(1 0 0 1 0 0) " stroke-linecap="round"/>
	<path d="M 50.248 47.306 c -0.633 0 -1.271 -0.036 -1.912 -0.11 c -7.423 -0.851 -13.391 -6.864 -14.19 -14.298 c -0.831 -7.735 3.733 -14.806 11.1 -17.195 c 0.584 -0.188 1.219 0.016 1.584 0.506 c 0.362 0.487 0.373 1.149 0.028 1.648 c -1.898 2.743 -2.75 5.968 -2.46 9.326 c 0.539 6.261 5.237 11.473 11.425 12.676 c 1.611 0.312 3.242 0.346 4.848 0.101 c 0.597 -0.091 1.193 0.21 1.474 0.751 c 0.28 0.542 0.183 1.203 -0.242 1.642 C 58.815 45.554 54.647 47.306 50.248 47.306 z M 44.291 18.216 c -5.522 2.527 -8.824 8.252 -8.156 14.467 c 0.7 6.512 5.927 11.779 12.43 12.525 c 3.896 0.451 7.698 -0.674 10.66 -3.101 c -1.255 0.054 -2.527 -0.042 -3.782 -0.286 l 0 0 c -7.062 -1.372 -12.422 -7.321 -13.037 -14.467 C 42.127 24.122 42.777 20.996 44.291 18.216 z" style="stroke: none; stroke-width: 1; stroke-dasharray: none; stroke-linecap: butt; stroke-linejoin: miter; stroke-miterlimit: 10; fill: rgb(0,0,0); fill-rule: nonzero; opacity: 1;" transform=" matrix(1 0 0 1 0 0) " stroke-linecap="round"/>
</g>
</svg>